<svg xmlns="http://www.w3.org/2000/svg" viewBox="0 0 1200 630" width="1200" height="630">
  <defs>
    <radialGradient id="g" cx="50%" cy="0%" r="80%">
      <stop offset="0%" stop-color="#6366f1" stop-opacity="0.22"/>
      <stop offset="60%" stop-color="#0a0a0f" stop-opacity="0"/>
    </radialGradient>
    <linearGradient id="card" x1="0" y1="0" x2="0" y2="1">
      <stop offset="0%" stop-color="#15151f"/>
      <stop offset="100%" stop-color="#0e0e16"/>
    </linearGradient>
  </defs>

  <!-- Background -->
  <rect width="1200" height="630" fill="#0a0a0f"/>
  <rect width="1200" height="630" fill="url(#g)"/>

  <!-- App icon tile -->
  <g transform="translate(96 160)">
    <rect width="160" height="160" rx="36" ry="36" fill="#16a34a"/>
    <g fill="#ffffff" transform="translate(80 80) scale(0.28)">
      <circle cx="0" cy="-104" r="34"/>
      <rect x="-18" y="-80" width="36" height="220" rx="14"/>
    </g>
    <g fill="none" stroke="#ffffff" stroke-width="8" stroke-linecap="round" transform="translate(80 80) scale(0.28)">
      <path d="M-78 -140 q-40 40 0 100"/>
      <path d="M78 -140 q40 40 0 100"/>
      <path d="M-140 -166 q-56 64 0 152"/>
      <path d="M140 -166 q56 64 0 152"/>
    </g>
  </g>

  <!-- Wordmark + tagline -->
  <text x="288" y="212" font-family="-apple-system, BlinkMacSystemFont, 'SF Pro Display', 'Segoe UI', system-ui, sans-serif" font-size="38" font-weight="500" fill="#9090a8" letter-spacing="0.5">Status Monitor</text>
  <text x="288" y="300" font-family="-apple-system, BlinkMacSystemFont, 'SF Pro Display', 'Segoe UI', system-ui, sans-serif" font-size="76" font-weight="700" fill="#f0f0f5" letter-spacing="-1.5">Know before your</text>
  <text x="288" y="380" font-family="-apple-system, BlinkMacSystemFont, 'SF Pro Display', 'Segoe UI', system-ui, sans-serif" font-size="76" font-weight="700" fill="#f0f0f5" letter-spacing="-1.5">users do.</text>

  <!-- Feature row -->
  <g transform="translate(96 478)" font-family="-apple-system, BlinkMacSystemFont, 'SF Pro Display', system-ui, sans-serif" font-size="24" fill="#9090a8">
    <g transform="translate(0 0)">
      <circle cx="14" cy="14" r="6" fill="#22c55e"/>
      <text x="32" y="22" font-weight="500">1,600+ services</text>
    </g>
    <g transform="translate(310 0)">
      <circle cx="14" cy="14" r="6" fill="#eab308"/>
      <text x="32" y="22" font-weight="500">Native macOS menu bar</text>
    </g>
    <g transform="translate(740 0)">
      <circle cx="14" cy="14" r="6" fill="#ef4444"/>
      <text x="32" y="22" font-weight="500">Free &amp; open source</text>
    </g>
  </g>

  <!-- Footer URL -->
  <text x="96" y="578" font-family="ui-monospace, SFMono-Regular, 'SF Mono', Menlo, monospace" font-size="20" fill="#606078">github.com/moollaza/status-monitor</text>

  <!-- Card border glow -->
  <rect x="0" y="0" width="1200" height="630" fill="none" stroke="#1e1e2e" stroke-width="2"/>
</svg>
